<svg id="BACKGROUND" xmlns="http://www.w3.org/2000/svg" xmlns:xlink="http://www.w3.org/1999/xlink" viewBox="0 0 433.03 500"><defs><style>.cls-1{fill:none;}.cls-2{clip-path:url(#clip-path);}.cls-3{fill:#f9fbfc;}.cls-4{fill:#dc5354;}.cls-5{fill:#fbd15b;}.cls-6{fill:#0a335b;}.cls-7{fill:#e9e5d9;}</style><clipPath id="clip-path"><rect class="cls-1" x="-316.97" width="750" height="500"/></clipPath></defs><title>3</title><g class="cls-2"><rect class="cls-3" x="-316.97" width="750" height="500"/><rect class="cls-4" x="99.74" width="83.32" height="83.32" rx="41.66"/><path class="cls-5" d="M141.4,60.26h0a18.6,18.6,0,0,1-18.6-18.6h0a18.6,18.6,0,0,1,18.6-18.6h0A18.6,18.6,0,0,1,160,41.66h0A18.6,18.6,0,0,1,141.4,60.26Z"/><rect class="cls-6" x="183.06" width="83.32" height="83.32"/><path class="cls-7" d="M99.74,83.32H16.42A83.32,83.32,0,0,1,99.74,0h0Z"/><path class="cls-4" d="M266.38,0h83.32a0,0,0,0,1,0,0V0a83.32,83.32,0,0,1-83.32,83.32h0a0,0,0,0,1,0,0V0A0,0,0,0,1,266.38,0Z"/><path class="cls-7" d="M349.71,0H433a0,0,0,0,1,0,0V83.32a0,0,0,0,1,0,0h0A83.32,83.32,0,0,1,349.71,0V0A0,0,0,0,1,349.71,0Z"/><path class="cls-4" d="M99.74,166.64h0A83.32,83.32,0,0,1,16.42,83.32H99.74Z"/><path class="cls-5" d="M99.74,130.7h0A47.38,47.38,0,0,1,52.36,83.32H99.74Z"/><rect class="cls-6" x="99.74" y="83.32" width="83.32" height="83.32"/><rect class="cls-7" x="123.57" y="107.15" width="35.66" height="35.66"/><rect class="cls-7" x="183.06" y="83.32" width="83.32" height="83.32"/><path class="cls-4" d="M266.38,83.32h0a0,0,0,0,1,0,0v83.32a0,0,0,0,1,0,0H183.06a0,0,0,0,1,0,0v0A83.32,83.32,0,0,1,266.38,83.32Z"/><path class="cls-4" d="M433,83.32h0a0,0,0,0,1,0,0v83.32a0,0,0,0,1,0,0H349.71a0,0,0,0,1,0,0v0A83.32,83.32,0,0,1,433,83.32Z"/><path class="cls-5" d="M266.38,83.32h0a83.32,83.32,0,0,1,83.32,83.32v0a0,0,0,0,1,0,0H266.38a0,0,0,0,1,0,0V83.32A0,0,0,0,1,266.38,83.32Z"/><rect class="cls-5" x="99.74" y="166.64" width="83.32" height="83.32"/><rect class="cls-3" x="183.06" y="166.64" width="83.32" height="83.32"/><rect class="cls-6" x="16.42" y="166.64" width="83.32" height="83.32" rx="41.66"/><path class="cls-4" d="M58.08,226.89h0A18.59,18.59,0,0,1,39.49,208.3h0a18.59,18.59,0,0,1,18.59-18.59h0A18.59,18.59,0,0,1,76.67,208.3h0A18.59,18.59,0,0,1,58.08,226.89Z"/><rect class="cls-3" x="266.38" y="166.64" width="83.32" height="83.32"/><path class="cls-6" d="M183.06,166.64h83.32a0,0,0,0,1,0,0V250a0,0,0,0,1,0,0h0a83.32,83.32,0,0,1-83.32-83.32v0A0,0,0,0,1,183.06,166.64Z"/><path class="cls-4" d="M266.38,166.64h83.32a0,0,0,0,1,0,0v0A83.32,83.32,0,0,1,266.38,250h0a0,0,0,0,1,0,0V166.64A0,0,0,0,1,266.38,166.64Z"/><path class="cls-3" d="M266.38,166.64H225.13a41.25,41.25,0,0,1,41.25-41.25h0Z"/><path class="cls-4" d="M266.38,125.39h0a41.26,41.26,0,0,1,41.26,41.26v0a0,0,0,0,1,0,0H266.38a0,0,0,0,1,0,0V125.39A0,0,0,0,1,266.38,125.39Z"/><path class="cls-5" d="M266.38,207.9h0a41.25,41.25,0,0,1-41.25-41.26h41.25Z"/><path class="cls-6" d="M266.38,207.9h0V166.64h41.26A41.26,41.26,0,0,1,266.38,207.9Z"/><path class="cls-6" d="M433,250H349.71V166.64h0A83.33,83.33,0,0,1,433,250Z"/><path class="cls-7" d="M99.74,333.29h0A83.32,83.32,0,0,1,16.42,250H99.74Z"/><rect class="cls-6" x="99.74" y="249.97" width="83.32" height="83.32"/><polygon class="cls-6" points="183.06 333.29 99.74 333.29 183.06 249.97 183.06 333.29"/><path class="cls-4" d="M183.06,250h0a83.32,83.32,0,0,1,83.32,83.32v0a0,0,0,0,1,0,0H183.06a0,0,0,0,1,0,0V250A0,0,0,0,1,183.06,250Z"/><path class="cls-5" d="M433,333.29H349.71V250h0A83.32,83.32,0,0,1,433,333.29Z"/><path class="cls-6" d="M349.71,250h0a0,0,0,0,1,0,0v83.32a0,0,0,0,1,0,0H266.38a0,0,0,0,1,0,0v0A83.32,83.32,0,0,1,349.71,250Z"/><path class="cls-6" d="M349.71,250h0a0,0,0,0,1,0,0v83.32a0,0,0,0,1,0,0H266.38a0,0,0,0,1,0,0v0A83.32,83.32,0,0,1,349.71,250Z"/><path class="cls-7" d="M402,333.29H349.71V281h0A52.33,52.33,0,0,1,402,333.29Z"/><path class="cls-4" d="M349.71,281h0a0,0,0,0,1,0,0v52.33a0,0,0,0,1,0,0H297.37a0,0,0,0,1,0,0v0A52.33,52.33,0,0,1,349.71,281Z"/><path class="cls-4" d="M99.74,416.61h0a83.32,83.32,0,0,0-83.32,83.32H99.74Z"/><path class="cls-5" d="M99.74,416.61h0v83.32h83.32A83.32,83.32,0,0,0,99.74,416.61Z"/><path class="cls-7" d="M99.74,451.78h0a48.15,48.15,0,0,0-48.15,48.15H99.74Z"/><path class="cls-3" d="M99.74,451.78h0v48.15h48.15A48.15,48.15,0,0,0,99.74,451.78Z"/><path class="cls-6" d="M183.06,416.61h0a83.32,83.32,0,0,0,83.32,83.32h0A83.32,83.32,0,0,0,183.06,416.61Z"/><rect class="cls-6" x="349.71" y="416.61" width="83.32" height="83.32"/><path class="cls-4" d="M349.71,416.61h0a83.32,83.32,0,0,0-83.33,83.32h83.33Z"/><path class="cls-4" d="M99.74,333.29h0a83.32,83.32,0,0,0,83.32,83.32h0A83.32,83.32,0,0,0,99.74,333.29Z"/><path class="cls-5" d="M266.38,333.29h0a83.32,83.32,0,0,0-83.32,83.32h0a83.32,83.32,0,0,0,83.32-83.32Z"/><rect class="cls-3" x="266.38" y="333.29" width="83.32" height="83.32"/><path class="cls-5" d="M328.88,333.29h0A20.83,20.83,0,0,0,308,354.12h0A20.84,20.84,0,0,0,328.88,375h0a20.84,20.84,0,0,0,20.83-20.83h0A20.83,20.83,0,0,0,328.88,333.29Z"/><path class="cls-3" d="M328.88,349.19h0a4.92,4.92,0,0,0-4.93,4.93h0a4.93,4.93,0,0,0,4.93,4.93h0a4.93,4.93,0,0,0,4.92-4.93h0A4.92,4.92,0,0,0,328.88,349.19Z"/><path class="cls-7" d="M287.21,333.29h0a20.83,20.83,0,0,0-20.83,20.83h0A20.84,20.84,0,0,0,287.21,375h0A20.83,20.83,0,0,0,308,354.12h0A20.82,20.82,0,0,0,287.21,333.29Z"/><path class="cls-6" d="M287.21,349.19h0a4.93,4.93,0,0,0-4.93,4.93h0a4.93,4.93,0,0,0,4.93,4.93h0a4.93,4.93,0,0,0,4.93-4.93h0A4.92,4.92,0,0,0,287.21,349.19Z"/><path class="cls-6" d="M328.88,375h0A20.83,20.83,0,0,0,308,395.78h0a20.84,20.84,0,0,0,20.84,20.83h0a20.84,20.84,0,0,0,20.83-20.83h0A20.83,20.83,0,0,0,328.88,375Z"/><path class="cls-5" d="M328.88,390.85h0a4.93,4.93,0,0,0-4.93,4.93h0a4.93,4.93,0,0,0,4.93,4.93h0a4.93,4.93,0,0,0,4.92-4.93h0A4.93,4.93,0,0,0,328.88,390.85Z"/><rect class="cls-4" x="266.38" y="374.95" width="41.66" height="41.66" rx="20.83"/><path class="cls-7" d="M287.21,390.85h0a4.93,4.93,0,0,0-4.93,4.93h0a4.93,4.93,0,0,0,4.93,4.93h0a4.93,4.93,0,0,0,4.93-4.93h0A4.93,4.93,0,0,0,287.21,390.85Z"/><rect class="cls-4" x="349.71" y="333.29" width="83.32" height="83.32"/><rect class="cls-6" x="373.62" y="357.2" width="35.49" height="35.49"/><path class="cls-5" d="M361.16,446.54a4,4,0,1,0-2.85-1.18,4.06,4.06,0,0,0,2.85,1.18"/><path class="cls-5" d="M402.77,446.54h0a4,4,0,1,0,0-8.07h0a4,4,0,0,0,0,8.07Z"/><path class="cls-5" d="M382,446.54h0a4,4,0,1,0,0-8.07h0a4,4,0,1,0,0,8.07Z"/><path class="cls-5" d="M423.59,446.54a4,4,0,1,0-2.85-1.18,4.07,4.07,0,0,0,2.85,1.18"/><path class="cls-5" d="M361.16,430a4,4,0,1,0-2.85-1.18,4.06,4.06,0,0,0,2.85,1.18"/><path class="cls-5" d="M402.77,430h0a4,4,0,1,0,0-8.07h0a4,4,0,0,0,0,8.07Z"/><path class="cls-5" d="M382,430h0a4,4,0,1,0,0-8.07h0a4,4,0,1,0,0,8.07Z"/><path class="cls-5" d="M423.59,430a4,4,0,1,0-2.85-1.18,4.07,4.07,0,0,0,2.85,1.18"/><path class="cls-5" d="M361.16,463.12a4,4,0,1,0-2.85-1.18,4.06,4.06,0,0,0,2.85,1.18"/><path class="cls-5" d="M402.77,463.12h0a4,4,0,1,0,0-8.07h0a4,4,0,0,0,0,8.07Z"/><path class="cls-5" d="M382,463.12h0a4,4,0,1,0,0-8.07h0a4,4,0,1,0,0,8.07Z"/><path class="cls-5" d="M423.59,463.12a4,4,0,1,0-2.85-1.18,4.07,4.07,0,0,0,2.85,1.18"/><path class="cls-5" d="M361.16,479.7a4,4,0,1,0-2.85-1.18,4.06,4.06,0,0,0,2.85,1.18"/><path class="cls-5" d="M402.77,479.7h0a4,4,0,1,0,0-8.07h0a4,4,0,0,0,0,8.07Z"/><path class="cls-5" d="M382,479.7h0a4,4,0,1,0,0-8.07h0a4,4,0,1,0,0,8.07Z"/><path class="cls-5" d="M423.59,479.7a4,4,0,1,0-2.85-1.18,4.07,4.07,0,0,0,2.85,1.18"/><path class="cls-5" d="M361.16,496.28a4,4,0,1,0-2.85-1.18,4.06,4.06,0,0,0,2.85,1.18"/><path class="cls-5" d="M402.77,496.28h0a4,4,0,1,0,0-8.07h0a4,4,0,0,0,0,8.07Z"/><path class="cls-5" d="M382,496.28h0a4,4,0,1,0,0-8.07h0a4,4,0,1,0,0,8.07Z"/><path class="cls-5" d="M423.59,496.28a4,4,0,1,0-2.85-1.18,4.07,4.07,0,0,0,2.85,1.18"/><path class="cls-3" d="M110.13,196.64a4,4,0,1,0-2.85-1.18,4.06,4.06,0,0,0,2.85,1.18"/><path class="cls-3" d="M151.74,196.64h0a4,4,0,1,0,0-8.07h0a4,4,0,0,0,0,8.07Z"/><path class="cls-3" d="M130.93,196.64h0a4,4,0,1,0,0-8.07h0a4,4,0,0,0,0,8.07Z"/><path class="cls-3" d="M172.56,196.64a4,4,0,1,0-2.85-1.18,4.07,4.07,0,0,0,2.85,1.18"/><path class="cls-3" d="M110.13,180.06a4,4,0,1,0-2.85-1.18,4.06,4.06,0,0,0,2.85,1.18"/><path class="cls-3" d="M151.74,180.06h0a4,4,0,1,0,0-8.07h0a4,4,0,0,0,0,8.07Z"/><path class="cls-3" d="M130.93,180.06h0a4,4,0,1,0,0-8.07h0a4,4,0,0,0,0,8.07Z"/><path class="cls-3" d="M172.56,180.06a4,4,0,1,0-2.85-1.18,4.07,4.07,0,0,0,2.85,1.18"/><path class="cls-3" d="M110.13,213.22a4,4,0,1,0-2.85-1.18,4.06,4.06,0,0,0,2.85,1.18"/><path class="cls-3" d="M151.74,213.22h0a4,4,0,1,0,0-8.07h0a4,4,0,0,0,0,8.07Z"/><path class="cls-3" d="M130.93,213.22h0a4,4,0,1,0,0-8.07h0a4,4,0,0,0,0,8.07Z"/><path class="cls-3" d="M172.56,213.22a4,4,0,1,0-2.85-1.18,4.07,4.07,0,0,0,2.85,1.18"/><path class="cls-3" d="M110.13,229.8a4,4,0,1,0-2.85-1.18,4.06,4.06,0,0,0,2.85,1.18"/><path class="cls-3" d="M151.74,229.8h0a4,4,0,1,0,0-8.07h0a4,4,0,0,0,0,8.07Z"/><path class="cls-3" d="M130.93,229.8h0a4,4,0,1,0,0-8.07h0a4,4,0,0,0,0,8.07Z"/><path class="cls-3" d="M172.56,229.8a4,4,0,1,0-2.85-1.18,4.07,4.07,0,0,0,2.85,1.18"/><path class="cls-3" d="M110.13,246.38a4,4,0,1,0-4-4,4.11,4.11,0,0,0,1.19,2.86,4.06,4.06,0,0,0,2.85,1.18"/><path class="cls-3" d="M151.74,246.38h0a4,4,0,1,0,0-8.07h0a4,4,0,0,0,0,8.07Z"/><path class="cls-3" d="M130.93,246.38h0a4,4,0,1,0,0-8.07h0a4,4,0,0,0,0,8.07Z"/><path class="cls-3" d="M172.56,246.38a4,4,0,1,0-2.85-1.18,4.07,4.07,0,0,0,2.85,1.18"/></g></svg>