<svg width="1171" height="650" viewBox="0 0 1171 650" fill="none" xmlns="http://www.w3.org/2000/svg">
<path d="M-334.634 38.4491C-323.258 -28.6414 -268.144 -79.6685 -200.377 -85.8527L985.354 -194.059C1080.73 -202.763 1159.73 -121.063 1147.82 -26.0288L1116.2 226.312C1110.81 269.312 1087.09 307.879 1051.15 332.084L626.995 617.69C596.115 638.484 558.605 647.051 521.759 641.726L-261.868 528.474C-345.28 516.419 -402.392 438.03 -388.302 354.938L-334.634 38.4491Z" fill="url(#paint0_linear)" fill-opacity="0.3"/>
<path d="M-286.061 56.7525C-274.753 -10.3768 -219.656 -61.4734 -151.866 -67.7004L950.404 -168.952C1045.77 -177.711 1124.81 -96.081 1112.98 -1.05011L1084.67 226.286C1079.34 269.174 1055.76 307.674 1019.98 331.922L625.421 599.352C594.434 620.355 556.713 629.012 519.669 623.623L-208.194 517.738C-291.478 505.623 -348.497 427.373 -334.516 344.382L-286.061 56.7525Z" fill="url(#paint1_linear)"/>
<defs>
<linearGradient id="paint0_linear" x1="-182.448" y1="-41.1679" x2="784.392" y2="367.691" gradientUnits="userSpaceOnUse">
<stop stop-color="#E7873C"/>
<stop offset="1" stop-color="#E7873C"/>
</linearGradient>
<linearGradient id="paint1_linear" x1="-141.45" y1="-24.6496" x2="772.908" y2="359.488" gradientUnits="userSpaceOnUse">
<stop stop-color="#E06336"/>
<stop offset="1" stop-color="#E7873C"/>
</linearGradient>
</defs>
</svg>
