<svg id="BACKGROUND_2" data-name="BACKGROUND 2" xmlns="http://www.w3.org/2000/svg" xmlns:xlink="http://www.w3.org/1999/xlink" viewBox="0 0 750 500"><defs><style>.cls-1{fill:none;}.cls-2{clip-path:url(#clip-path);}.cls-3{fill:#fcb85e;}.cls-4{fill:#ffaa2c;}.cls-5{fill:#ff6464;}.cls-6{fill:#ff4342;}.cls-7{fill:#044257;}.cls-8{fill:#0d5568;}.cls-9{fill:#1dcdc3;}.cls-10{fill:#37dbcf;}</style><clipPath id="clip-path"><rect class="cls-1" width="750" height="500"/></clipPath></defs><title>2268289</title><g class="cls-2"><polygon class="cls-3" points="562.68 71.8 562.68 143.9 625.11 107.85 562.68 71.8"/><polygon class="cls-4" points="562.68 143.9 625.11 179.95 625.11 107.85 562.68 143.9"/><polygon class="cls-3" points="687.55 -0.29 687.55 71.8 749.99 35.76 687.55 -0.29"/><polygon class="cls-4" points="687.55 71.8 749.99 107.85 749.99 35.76 687.55 71.8"/><polygon class="cls-4" points="562.68 215.99 625.11 252.04 625.11 179.95 562.68 215.99"/><polygon class="cls-5" points="749.99 35.76 749.99 107.85 812.42 71.8 749.99 35.76"/><polygon class="cls-6" points="749.99 107.85 812.42 143.9 812.42 71.8 749.99 107.85"/><polygon class="cls-7" points="562.68 -0.29 625.11 35.76 625.11 -36.34 562.68 -0.29"/><polygon class="cls-8" points="625.11 252.04 625.11 324.14 687.55 288.09 625.11 252.04"/><polygon class="cls-7" points="625.11 324.14 687.55 360.19 687.55 288.09 625.11 324.14"/><polygon class="cls-5" points="562.68 143.9 500.24 179.95 562.68 215.99 562.68 143.9"/><polygon class="cls-6" points="625.11 179.95 562.68 143.9 562.68 215.99 625.11 179.95"/><polygon class="cls-4" points="749.99 252.04 687.55 288.09 749.99 324.14 749.99 252.04"/><polygon class="cls-3" points="812.42 288.09 749.99 252.04 749.99 324.14 812.42 288.09"/><polygon class="cls-7" points="812.42 -0.29 749.99 35.76 812.42 71.8 812.42 -0.29"/><polygon class="cls-7" points="375.37 -36.05 312.93 0 375.37 36.05 375.37 -36.05"/><polygon class="cls-8" points="437.8 0 375.37 -36.05 375.37 36.05 437.8 0"/><polygon class="cls-9" points="625.11 35.76 625.11 107.85 687.55 71.8 625.11 35.76"/><polygon class="cls-8" points="625.11 107.85 687.55 143.9 687.55 71.8 625.11 107.85"/><polygon class="cls-4" points="625.11 -36.34 625.11 35.76 687.55 -0.29 625.11 -36.34"/><polygon class="cls-10" points="625.11 35.76 687.55 71.8 687.55 -0.29 625.11 35.76"/><polygon class="cls-6" points="250.5 107.85 250.5 179.95 312.93 143.9 250.5 107.85"/><polygon class="cls-5" points="250.5 107.85 312.93 143.9 312.93 71.8 250.5 107.85"/><polygon class="cls-6" points="687.55 360.19 687.55 432.28 749.99 396.23 687.55 360.19"/><polygon class="cls-5" points="687.55 360.19 749.99 396.23 749.99 324.14 687.55 360.19"/><polygon class="cls-7" points="687.55 143.9 625.11 107.85 625.11 179.95 687.55 143.9"/><polygon class="cls-8" points="437.8 215.99 500.24 252.04 500.24 179.95 437.8 215.99"/><polygon class="cls-7" points="500.24 252.04 437.8 215.99 437.8 288.09 500.24 252.04"/><polygon class="cls-8" points="500.24 107.85 562.68 143.9 562.68 71.8 500.24 107.85"/><polygon class="cls-7" points="500.24 179.95 562.68 143.9 500.24 107.85 500.24 179.95"/><polygon class="cls-9" points="562.68 215.99 500.24 252.04 562.68 288.09 562.68 215.99"/><polygon class="cls-10" points="500.24 252.04 562.68 215.99 500.24 179.95 500.24 252.04"/><polygon class="cls-9" points="375.37 35.76 312.93 71.8 375.37 107.85 375.37 35.76"/><polygon class="cls-10" points="312.93 71.8 375.37 35.76 312.93 -0.29 312.93 71.8"/><polygon class="cls-9" points="687.55 360.19 625.11 396.23 687.55 432.28 687.55 360.19"/><polygon class="cls-10" points="625.11 396.23 687.55 360.19 625.11 324.14 625.11 396.23"/><polygon class="cls-10" points="500.24 35.76 562.68 71.8 562.68 -0.29 500.24 35.76"/><polygon class="cls-9" points="500.24 107.85 562.68 71.8 500.24 35.76 500.24 107.85"/><polygon class="cls-10" points="687.55 143.9 749.99 179.95 749.99 107.85 687.55 143.9"/><polygon class="cls-9" points="687.55 215.99 749.99 179.95 687.55 143.9 687.55 215.99"/><polygon class="cls-4" points="500.24 35.76 437.8 71.8 500.24 107.85 500.24 35.76"/><polygon class="cls-3" points="437.8 71.8 500.24 35.76 437.8 -0.29 437.8 71.8"/><polygon class="cls-4" points="375.37 107.85 312.93 143.9 375.37 179.95 375.37 107.85"/><polygon class="cls-3" points="312.93 143.9 375.37 107.85 312.93 71.8 312.93 143.9"/><polygon class="cls-6" points="437.8 71.8 375.37 107.85 437.8 143.9 437.8 71.8"/><polygon class="cls-5" points="375.37 107.85 437.8 71.8 375.37 35.76 375.37 107.85"/><polygon class="cls-6" points="687.55 215.99 625.11 252.04 687.55 288.09 687.55 215.99"/><polygon class="cls-5" points="625.11 252.04 687.55 215.99 625.11 179.95 625.11 252.04"/></g></svg>