<svg xmlns="http://www.w3.org/2000/svg" xmlns:xlink="http://www.w3.org/1999/xlink" viewBox="0 0 468.65 623.32"><defs><style>.cls-1{fill:none;}.cls-2{fill:url(#Degradado_sin_nombre_34);}.cls-3{fill:url(#Degradado_sin_nombre_28);}.cls-4{fill:url(#Degradado_sin_nombre_28-2);}.cls-5{fill:url(#Degradado_sin_nombre_10);}.cls-6{fill:url(#Degradado_sin_nombre_34-2);}.cls-7{fill:url(#Degradado_sin_nombre_10-2);}.cls-8{fill:url(#Degradado_sin_nombre_28-3);}.cls-9{fill:url(#Degradado_sin_nombre_10-3);}.cls-10{fill:url(#Degradado_sin_nombre_28-4);}.cls-11{fill:url(#Degradado_sin_nombre_10-4);}.cls-12{fill:url(#Degradado_sin_nombre_19);}.cls-13{fill:#fff;}.cls-14{fill:url(#Degradado_sin_nombre_34-3);}.cls-15{fill:url(#Degradado_sin_nombre_19-2);}.cls-16{fill:url(#Degradado_sin_nombre_10-5);}.cls-17{fill:url(#Degradado_sin_nombre_28-5);}</style><linearGradient id="Degradado_sin_nombre_34" y1="502.65" x2="162.51" y2="502.65" gradientUnits="userSpaceOnUse"><stop offset="0" stop-color="#f8b8f8"/><stop offset="0.19" stop-color="#f8b2f8"/><stop offset="1" stop-color="#f89af8"/></linearGradient><linearGradient id="Degradado_sin_nombre_28" x1="269.84" y1="198.65" x2="468.65" y2="198.65" gradientUnits="userSpaceOnUse"><stop offset="0" stop-color="#69ffff"/><stop offset="0.97" stop-color="#2dccf7"/><stop offset="1" stop-color="#2bcbf7"/></linearGradient><linearGradient id="Degradado_sin_nombre_28-2" x1="269.84" y1="338.17" x2="468.65" y2="338.17" xlink:href="#Degradado_sin_nombre_28"/><linearGradient id="Degradado_sin_nombre_10" x1="81.43" y1="442.32" x2="410.4" y2="442.32" gradientUnits="userSpaceOnUse"><stop offset="0" stop-color="#f84818"/><stop offset="0.05" stop-color="#f84b24"/><stop offset="0.39" stop-color="#fb5966"/><stop offset="0.67" stop-color="#fd6396"/><stop offset="0.88" stop-color="#ff6ab4"/><stop offset="1" stop-color="#ff6cbf"/></linearGradient><linearGradient id="Degradado_sin_nombre_34-2" y1="462.11" x2="162.51" y2="462.11" xlink:href="#Degradado_sin_nombre_34"/><linearGradient id="Degradado_sin_nombre_10-2" x1="81.43" y1="462.11" x2="410.4" y2="462.11" xlink:href="#Degradado_sin_nombre_10"/><linearGradient id="Degradado_sin_nombre_28-3" x1="269.84" y1="467.51" x2="468.65" y2="467.51" xlink:href="#Degradado_sin_nombre_28"/><linearGradient id="Degradado_sin_nombre_10-3" x1="81.43" y1="467.51" x2="410.4" y2="467.51" xlink:href="#Degradado_sin_nombre_10"/><linearGradient id="Degradado_sin_nombre_28-4" x1="269.84" y1="277.83" x2="468.65" y2="277.83" xlink:href="#Degradado_sin_nombre_28"/><linearGradient id="Degradado_sin_nombre_10-4" x1="81.43" y1="277.83" x2="410.4" y2="277.83" xlink:href="#Degradado_sin_nombre_10"/><linearGradient id="Degradado_sin_nombre_19" x1="183.75" y1="86.84" x2="357.34" y2="86.84" gradientUnits="userSpaceOnUse"><stop offset="0" stop-color="#f881ff"/><stop offset="0.37" stop-color="#e561fc"/><stop offset="0.77" stop-color="#d443f9"/><stop offset="1" stop-color="#cd38f8"/></linearGradient><linearGradient id="Degradado_sin_nombre_34-3" y1="317.37" x2="269.84" y2="317.37" xlink:href="#Degradado_sin_nombre_34"/><linearGradient id="Degradado_sin_nombre_19-2" x1="0.24" y1="344.35" x2="162.27" y2="344.35" xlink:href="#Degradado_sin_nombre_19"/><linearGradient id="Degradado_sin_nombre_10-5" x1="410.4" y1="128.37" x2="468.65" y2="128.37" xlink:href="#Degradado_sin_nombre_10"/><linearGradient id="Degradado_sin_nombre_28-5" x1="269.84" y1="562.98" x2="410.4" y2="562.98" xlink:href="#Degradado_sin_nombre_28"/></defs><title>1</title><g id="PRINT_1" data-name="PRINT 1"><path class="cls-1" d="M162.51,388v33.61L202.09,382H162.27C162.41,384,162.51,386,162.51,388Z"/><path class="cls-2" d="M162.51,421.57V388c0-2-.1-4-.24-6H.24C.1,384,0,386,0,388V623.32H81.43V502.65Z"/><path class="cls-3" d="M410.4,173.68V83.06H357.34c.05,1.25.09,2.51.09,3.78a86.84,86.84,0,0,1-86.84,86.84h-.75V314.24Z"/><polygon class="cls-4" points="410.4 381.99 410.4 502.65 468.65 502.65 468.65 173.68 410.4 173.68 410.4 381.99"/><polygon class="cls-5" points="269.84 381.99 202.09 381.99 162.51 421.57 162.51 502.65 269.84 502.65 269.84 432.37 269.84 381.99"/><polygon class="cls-6" points="81.43 502.65 162.51 502.65 162.51 421.57 81.43 502.65"/><polygon class="cls-7" points="81.43 502.65 162.51 502.65 162.51 421.57 81.43 502.65"/><path class="cls-8" d="M269.84,432.37v70.28h70.28A70.28,70.28,0,0,1,269.84,432.37Z"/><path class="cls-9" d="M269.84,432.37v70.28h70.28A70.28,70.28,0,0,1,269.84,432.37Z"/><polygon class="cls-10" points="269.84 381.99 410.4 381.99 410.4 173.68 269.84 314.24 269.84 381.99"/><polygon class="cls-11" points="269.84 381.99 410.4 381.99 410.4 173.68 269.84 314.24 269.84 381.99"/><path class="cls-12" d="M357.34,83.06a86.84,86.84,0,1,0-87.5,90.61V83.06Z"/><path class="cls-13" d="M357.43,86.84c0-1.27,0-2.53-.09-3.78h-87.5v90.61h.75A86.84,86.84,0,0,0,357.43,86.84Z"/><rect class="cls-13" x="81.43" y="502.65" width="81.08" height="120.67"/><path class="cls-14" d="M81.26,306.71h0a81.24,81.24,0,0,1,81,75.27h39.82l67.75-67.74V252.76H0V382H.24A81.24,81.24,0,0,1,81.26,306.71Z"/><path class="cls-15" d="M81.26,306.71h0A81.24,81.24,0,0,0,.24,382h162A81.24,81.24,0,0,0,81.26,306.71Z"/><polygon class="cls-13" points="202.09 381.99 269.84 381.99 269.84 314.24 202.09 381.99"/><rect class="cls-16" x="410.4" y="83.06" width="58.25" height="90.62"/><path class="cls-13" d="M269.84,382v50.39a70.28,70.28,0,0,0,70.28,70.28H410.4V382Z"/><path class="cls-17" d="M269.84,502.65V553a70.29,70.29,0,0,0,70.28,70.28H410.4V502.65H269.84Z"/></g></svg>